<mxfile host="app.diagrams.net" modified="2023-10-21T15:14:16.129Z" agent="Mozilla/5.0 (Windows NT 10.0; Win64; x64) AppleWebKit/537.36 (KHTML, like Gecko) Chrome/118.0.0.0 Safari/537.36" etag="x7m-GXKIYqyxA7WIDNnY" version="22.0.6" type="google">
  <diagram name="Page-1" id="DUGuRNqGc-olrx1Hr31M">
    <mxGraphModel grid="1" page="1" gridSize="10" guides="1" tooltips="1" connect="1" arrows="1" fold="1" pageScale="1" pageWidth="826" pageHeight="1169" math="0" shadow="0">
      <root>
        <mxCell id="0" />
        <mxCell id="1" parent="0" />
        <mxCell id="xPx_GB9aNfZapP-EF7P2-1" value="" style="strokeWidth=1;shadow=0;dashed=0;align=right;html=1;shape=mxgraph.mockup.containers.browserWindow;rSize=0;strokeColor=#666666;strokeColor2=#008cff;strokeColor3=#c4c4c4;mainText=,;recursiveResize=0;movable=0;resizable=0;rotatable=0;deletable=0;editable=0;locked=1;connectable=0;fontStyle=0;container=0;" vertex="1" parent="1">
          <mxGeometry x="-440" y="5" width="2540" height="2335" as="geometry" />
        </mxCell>
        <mxCell id="xPx_GB9aNfZapP-EF7P2-2" value="JoelEkeng" style="strokeWidth=1;shadow=0;dashed=0;align=center;html=1;shape=mxgraph.mockup.containers.anchor;fontSize=17;fontColor=#666666;align=left;whiteSpace=wrap;" vertex="1" parent="1">
          <mxGeometry x="-380" y="17" width="110" height="26" as="geometry" />
        </mxCell>
        <mxCell id="xPx_GB9aNfZapP-EF7P2-3" value="https://www.Joelekeng.org" style="strokeWidth=1;shadow=0;dashed=0;align=center;html=1;shape=mxgraph.mockup.containers.anchor;rSize=0;fontSize=17;fontColor=#666666;align=left;" vertex="1" parent="1">
          <mxGeometry x="-310" y="65" width="250" height="26" as="geometry" />
        </mxCell>
        <mxCell id="xPx_GB9aNfZapP-EF7P2-4" value="" style="strokeWidth=0;shadow=0;dashed=0;align=center;html=1;shape=mxgraph.mockup.containers.rrect;rSize=0;strokeColor=#666666;" vertex="1" parent="1">
          <mxGeometry x="-370" y="820" width="270" height="540" as="geometry" />
        </mxCell>
        <mxCell id="xPx_GB9aNfZapP-EF7P2-203" value="" style="verticalLabelPosition=bottom;shadow=0;dashed=0;align=center;html=1;verticalAlign=top;strokeWidth=1;shape=mxgraph.mockup.misc.help_icon;fontSize=16;" vertex="1" parent="xPx_GB9aNfZapP-EF7P2-4">
          <mxGeometry x="20.86363636363636" y="60" width="110.45454545454544" height="90" as="geometry" />
        </mxCell>
        <mxCell id="xPx_GB9aNfZapP-EF7P2-204" value="" style="verticalLabelPosition=bottom;shadow=0;dashed=0;align=center;html=1;verticalAlign=top;strokeWidth=1;shape=mxgraph.mockup.misc.help_icon;fontSize=16;" vertex="1" parent="xPx_GB9aNfZapP-EF7P2-4">
          <mxGeometry x="22.090909090909086" y="175" width="110.45454545454544" height="90" as="geometry" />
        </mxCell>
        <mxCell id="xPx_GB9aNfZapP-EF7P2-205" value="" style="verticalLabelPosition=bottom;shadow=0;dashed=0;align=center;html=1;verticalAlign=top;strokeWidth=1;shape=mxgraph.mockup.misc.help_icon;fontSize=16;" vertex="1" parent="xPx_GB9aNfZapP-EF7P2-4">
          <mxGeometry x="20.86363636363636" y="310" width="110.45454545454544" height="90" as="geometry" />
        </mxCell>
        <mxCell id="xPx_GB9aNfZapP-EF7P2-206" value="" style="verticalLabelPosition=bottom;shadow=0;dashed=0;align=center;html=1;verticalAlign=top;strokeWidth=1;shape=mxgraph.mockup.misc.help_icon;fontSize=16;" vertex="1" parent="xPx_GB9aNfZapP-EF7P2-4">
          <mxGeometry x="20.86363636363636" y="430" width="110.45454545454544" height="90" as="geometry" />
        </mxCell>
        <mxCell id="xPx_GB9aNfZapP-EF7P2-56" value="&lt;font size=&quot;1&quot; color=&quot;#000000&quot;&gt;&lt;b style=&quot;font-size: 30px;&quot;&gt;EKENG JOEL&lt;/b&gt;&lt;/font&gt;" style="strokeWidth=1;shadow=0;dashed=0;align=center;html=1;shape=mxgraph.mockup.forms.anchor;align=right;spacingRight=2;fontColor=#666666;" vertex="1" parent="1">
          <mxGeometry x="913" y="2241" width="4" height="18" as="geometry" />
        </mxCell>
        <mxCell id="xPx_GB9aNfZapP-EF7P2-84" value="" style="group" connectable="0" vertex="1" parent="1">
          <mxGeometry x="720" y="2280" width="270" height="29" as="geometry" />
        </mxCell>
        <mxCell id="xPx_GB9aNfZapP-EF7P2-41" value="" style="dashed=0;outlineConnect=0;html=1;align=center;labelPosition=center;verticalLabelPosition=bottom;verticalAlign=top;shape=mxgraph.webicons.twitter;fillColor=#49EAF7;gradientColor=#137BD0" vertex="1" parent="xPx_GB9aNfZapP-EF7P2-84">
          <mxGeometry x="169.7588782830379" y="7.90975" width="20.04950495049505" height="13.181818181818183" as="geometry" />
        </mxCell>
        <mxCell id="xPx_GB9aNfZapP-EF7P2-40" value="" style="dashed=0;outlineConnect=0;html=1;align=center;labelPosition=center;verticalLabelPosition=bottom;verticalAlign=top;shape=mxgraph.webicons.instagram;gradientColor=#DFDEDE;movable=1;resizable=1;rotatable=1;deletable=1;editable=1;locked=0;connectable=1;" vertex="1" parent="xPx_GB9aNfZapP-EF7P2-84">
          <mxGeometry x="53.465346534653456" y="2.6363636363636367" width="33.415841584158414" height="26.363636363636367" as="geometry" />
        </mxCell>
        <mxCell id="xPx_GB9aNfZapP-EF7P2-42" value="" style="dashed=0;outlineConnect=0;html=1;align=center;labelPosition=center;verticalLabelPosition=bottom;verticalAlign=top;shape=mxgraph.webicons.linkedin;fillColor=#FF9999;gradientColor=none;fontColor=#000000;" vertex="1" parent="xPx_GB9aNfZapP-EF7P2-84">
          <mxGeometry x="108.93564356435641" y="4.349999999999941" width="26.732673267326728" height="21.354545454545452" as="geometry" />
        </mxCell>
        <mxCell id="xPx_GB9aNfZapP-EF7P2-39" value="" style="dashed=0;outlineConnect=0;html=1;align=center;labelPosition=center;verticalLabelPosition=bottom;verticalAlign=top;shape=mxgraph.webicons.github;gradientColor=#DFDEDE" vertex="1" parent="xPx_GB9aNfZapP-EF7P2-84">
          <mxGeometry width="22.05445544554455" height="26.363636363636367" as="geometry" />
        </mxCell>
        <mxCell id="xPx_GB9aNfZapP-EF7P2-99" value="" style="group" connectable="0" vertex="1" parent="1">
          <mxGeometry x="646" y="519" width="376" height="95" as="geometry" />
        </mxCell>
        <mxCell id="xPx_GB9aNfZapP-EF7P2-100" value="&lt;span style=&quot;font-size: 24px;&quot;&gt;ABOUT&lt;/span&gt;" style="text;strokeColor=none;align=center;fillColor=none;html=1;verticalAlign=middle;whiteSpace=wrap;rounded=0;fontStyle=1" vertex="1" parent="xPx_GB9aNfZapP-EF7P2-99">
          <mxGeometry x="-5" y="27" width="376" height="85" as="geometry" />
        </mxCell>
        <mxCell id="xPx_GB9aNfZapP-EF7P2-101" value="" style="group" connectable="0" vertex="1" parent="xPx_GB9aNfZapP-EF7P2-99">
          <mxGeometry x="108.99999999999966" y="94" width="156.00000000000034" height="1" as="geometry" />
        </mxCell>
        <mxCell id="xPx_GB9aNfZapP-EF7P2-102" value="" style="endArrow=none;html=1;rounded=0;entryX=0.22;entryY=0.307;entryDx=0;entryDy=0;entryPerimeter=0;strokeWidth=5;fillColor=#f8cecc;strokeColor=#FF3333;" edge="1" parent="xPx_GB9aNfZapP-EF7P2-101">
          <mxGeometry width="50" height="50" relative="1" as="geometry">
            <mxPoint x="155.70000000000027" as="sourcePoint" />
            <mxPoint y="0.8449999999997999" as="targetPoint" />
          </mxGeometry>
        </mxCell>
        <mxCell id="xPx_GB9aNfZapP-EF7P2-103" value="" style="endArrow=none;html=1;rounded=0;strokeWidth=6;strokeColor=#ffffff;" edge="1" parent="xPx_GB9aNfZapP-EF7P2-101">
          <mxGeometry width="50" height="50" relative="1" as="geometry">
            <mxPoint x="3.410605131648481e-13" y="1" as="sourcePoint" />
            <mxPoint x="58.00000000000034" y="1" as="targetPoint" />
          </mxGeometry>
        </mxCell>
        <mxCell id="xPx_GB9aNfZapP-EF7P2-104" value="" style="endArrow=none;html=1;rounded=0;strokeWidth=6;strokeColor=#FFFFFF;" edge="1" parent="xPx_GB9aNfZapP-EF7P2-101">
          <mxGeometry width="50" height="50" relative="1" as="geometry">
            <mxPoint x="94.00000000000034" as="sourcePoint" />
            <mxPoint x="156.00000000000034" as="targetPoint" />
          </mxGeometry>
        </mxCell>
        <mxCell id="xPx_GB9aNfZapP-EF7P2-105" value="" style="group" connectable="0" vertex="1" parent="1">
          <mxGeometry x="250" y="1771" width="1210" height="365" as="geometry" />
        </mxCell>
        <mxCell id="xPx_GB9aNfZapP-EF7P2-20" value="&lt;font color=&quot;#ffffff&quot;&gt;Message&lt;/font&gt;" style="strokeWidth=1;shadow=0;dashed=0;align=center;html=1;shape=mxgraph.mockup.forms.rrect;rSize=0;align=left;spacingLeft=3;verticalAlign=top;whiteSpace=wrap;fillColor=#000000;" vertex="1" parent="xPx_GB9aNfZapP-EF7P2-105">
          <mxGeometry y="110" width="1210" height="165" as="geometry" />
        </mxCell>
        <mxCell id="xPx_GB9aNfZapP-EF7P2-19" value="" style="strokeWidth=1;shadow=0;dashed=0;align=center;html=1;shape=mxgraph.mockup.forms.rrect;fillColor=#000000;rSize=0;fontColor=#666666;align=left;spacingLeft=3;strokeColor=#999999;movable=1;resizable=1;rotatable=1;deletable=1;editable=1;locked=0;connectable=1;" vertex="1" parent="xPx_GB9aNfZapP-EF7P2-105">
          <mxGeometry y="55" width="1210" height="33" as="geometry" />
        </mxCell>
        <mxCell id="xPx_GB9aNfZapP-EF7P2-21" value="&lt;font color=&quot;#ffffff&quot;&gt;Subject&lt;/font&gt;" style="strokeWidth=1;shadow=0;dashed=0;align=center;html=1;shape=mxgraph.mockup.forms.anchor;align=right;spacingRight=2;fontColor=#666666;" vertex="1" parent="xPx_GB9aNfZapP-EF7P2-105">
          <mxGeometry x="11.846153846153845" y="65" width="84.61538461538461" height="18" as="geometry" />
        </mxCell>
        <mxCell id="xPx_GB9aNfZapP-EF7P2-15" value="&lt;font color=&quot;#ffffff&quot;&gt;Your Email&lt;/font&gt;" style="strokeWidth=1;shadow=0;dashed=0;align=center;html=1;shape=mxgraph.mockup.forms.rrect;fillColor=#000000;rSize=0;fontColor=#666666;align=left;spacingLeft=3;strokeColor=#999999;" vertex="1" parent="xPx_GB9aNfZapP-EF7P2-105">
          <mxGeometry x="604.1538461538461" width="605.8461538461538" height="35" as="geometry" />
        </mxCell>
        <mxCell id="xPx_GB9aNfZapP-EF7P2-13" value="&lt;font color=&quot;#ffffff&quot;&gt;Your Name&lt;/font&gt;" style="strokeWidth=1;shadow=0;dashed=0;align=center;html=1;shape=mxgraph.mockup.forms.rrect;fillColor=#000000;rSize=0;fontColor=#666666;align=left;spacingLeft=3;strokeColor=#999999;" vertex="1" parent="xPx_GB9aNfZapP-EF7P2-105">
          <mxGeometry width="519.5384615384615" height="35" as="geometry" />
        </mxCell>
        <mxCell id="xPx_GB9aNfZapP-EF7P2-43" value="Submit" style="strokeWidth=1;shadow=0;dashed=0;align=center;html=1;shape=mxgraph.mockup.buttons.button;strokeColor=#666666;fontColor=#000000;mainText=;buttonStyle=round;fontSize=17;fontStyle=1;fillColor=#FF3333;whiteSpace=wrap;" vertex="1" parent="xPx_GB9aNfZapP-EF7P2-105">
          <mxGeometry x="372.30769230769226" y="310" width="406.15384615384613" height="55" as="geometry" />
        </mxCell>
        <mxCell id="xPx_GB9aNfZapP-EF7P2-186" value="" style="group" connectable="0" vertex="1" parent="1">
          <mxGeometry y="970" width="800" height="150" as="geometry" />
        </mxCell>
        <mxCell id="xPx_GB9aNfZapP-EF7P2-174" value="" style="html=1;shadow=0;dashed=0;shape=mxgraph.bootstrap.rrect;rSize=5;fillColor=#E9ECEF;strokeColor=none;fontSize=16;" vertex="1" parent="xPx_GB9aNfZapP-EF7P2-186">
          <mxGeometry y="60" width="800" height="20" as="geometry" />
        </mxCell>
        <mxCell id="xPx_GB9aNfZapP-EF7P2-175" value="" style="html=1;shadow=0;dashed=0;shape=mxgraph.bootstrap.leftButton;rSize=5;fillColor=#FF3333;strokeColor=none;resizeHeight=1;fontSize=16;" vertex="1" parent="xPx_GB9aNfZapP-EF7P2-174">
          <mxGeometry width="470" height="20" relative="1" as="geometry" />
        </mxCell>
        <mxCell id="xPx_GB9aNfZapP-EF7P2-184" value="" style="html=1;shadow=0;dashed=0;shape=mxgraph.bootstrap.rrect;rSize=5;fillColor=#E9ECEF;strokeColor=none;fontSize=16;" vertex="1" parent="xPx_GB9aNfZapP-EF7P2-186">
          <mxGeometry width="800" height="20" as="geometry" />
        </mxCell>
        <mxCell id="xPx_GB9aNfZapP-EF7P2-185" value="" style="html=1;shadow=0;dashed=0;shape=mxgraph.bootstrap.leftButton;rSize=5;fillColor=#FF3333;strokeColor=none;resizeHeight=1;fontSize=16;" vertex="1" parent="xPx_GB9aNfZapP-EF7P2-184">
          <mxGeometry width="800" height="20" relative="1" as="geometry" />
        </mxCell>
        <mxCell id="xPx_GB9aNfZapP-EF7P2-176" value="" style="html=1;shadow=0;dashed=0;shape=mxgraph.bootstrap.rrect;rSize=5;fillColor=#E9ECEF;strokeColor=none;fontSize=16;" vertex="1" parent="xPx_GB9aNfZapP-EF7P2-186">
          <mxGeometry y="130" width="800" height="20" as="geometry" />
        </mxCell>
        <mxCell id="xPx_GB9aNfZapP-EF7P2-177" value="" style="html=1;shadow=0;dashed=0;shape=mxgraph.bootstrap.leftButton;rSize=5;fillColor=#FF3333;strokeColor=none;resizeHeight=1;fontSize=16;" vertex="1" parent="xPx_GB9aNfZapP-EF7P2-176">
          <mxGeometry width="380" height="20" relative="1" as="geometry">
            <mxPoint as="offset" />
          </mxGeometry>
        </mxCell>
        <mxCell id="xPx_GB9aNfZapP-EF7P2-187" value="" style="group" connectable="0" vertex="1" parent="1">
          <mxGeometry x="897" y="968" width="806" height="150" as="geometry" />
        </mxCell>
        <mxCell id="xPx_GB9aNfZapP-EF7P2-188" value="" style="html=1;shadow=0;dashed=0;shape=mxgraph.bootstrap.rrect;rSize=5;fillColor=#E9ECEF;strokeColor=none;fontSize=16;" vertex="1" parent="xPx_GB9aNfZapP-EF7P2-187">
          <mxGeometry y="60" width="800" height="20" as="geometry" />
        </mxCell>
        <mxCell id="xPx_GB9aNfZapP-EF7P2-189" value="" style="html=1;shadow=0;dashed=0;shape=mxgraph.bootstrap.leftButton;rSize=5;fillColor=#FF3333;strokeColor=none;resizeHeight=1;fontSize=16;" vertex="1" parent="xPx_GB9aNfZapP-EF7P2-188">
          <mxGeometry width="400" height="20" relative="1" as="geometry" />
        </mxCell>
        <mxCell id="xPx_GB9aNfZapP-EF7P2-190" value="" style="html=1;shadow=0;dashed=0;shape=mxgraph.bootstrap.rrect;rSize=5;fillColor=#E9ECEF;strokeColor=none;fontSize=16;" vertex="1" parent="xPx_GB9aNfZapP-EF7P2-187">
          <mxGeometry width="800" height="20" as="geometry" />
        </mxCell>
        <mxCell id="xPx_GB9aNfZapP-EF7P2-191" value="" style="html=1;shadow=0;dashed=0;shape=mxgraph.bootstrap.leftButton;rSize=5;fillColor=#FF3333;strokeColor=none;resizeHeight=1;fontSize=16;" vertex="1" parent="xPx_GB9aNfZapP-EF7P2-190">
          <mxGeometry width="640" height="20" relative="1" as="geometry" />
        </mxCell>
        <mxCell id="xPx_GB9aNfZapP-EF7P2-192" value="" style="html=1;shadow=0;dashed=0;shape=mxgraph.bootstrap.rrect;rSize=5;fillColor=#E9ECEF;strokeColor=none;fontSize=16;" vertex="1" parent="xPx_GB9aNfZapP-EF7P2-187">
          <mxGeometry y="130" width="800" height="20" as="geometry" />
        </mxCell>
        <mxCell id="xPx_GB9aNfZapP-EF7P2-193" value="" style="html=1;shadow=0;dashed=0;shape=mxgraph.bootstrap.leftButton;rSize=5;fillColor=#DB2843;strokeColor=none;resizeHeight=1;fontSize=16;" vertex="1" parent="xPx_GB9aNfZapP-EF7P2-192">
          <mxGeometry width="10" height="20" relative="1" as="geometry">
            <mxPoint as="offset" />
          </mxGeometry>
        </mxCell>
        <mxCell id="xPx_GB9aNfZapP-EF7P2-194" value="" style="group" connectable="0" vertex="1" parent="1">
          <mxGeometry x="715" y="1262" width="980" height="400" as="geometry" />
        </mxCell>
        <mxCell id="xPx_GB9aNfZapP-EF7P2-195" value="" style="group" connectable="0" vertex="1" parent="xPx_GB9aNfZapP-EF7P2-194">
          <mxGeometry x="-280" width="1260" height="400" as="geometry" />
        </mxCell>
        <mxCell id="xPx_GB9aNfZapP-EF7P2-196" value="" style="group" connectable="0" vertex="1" parent="xPx_GB9aNfZapP-EF7P2-195">
          <mxGeometry width="1260" height="400" as="geometry" />
        </mxCell>
        <mxCell id="xPx_GB9aNfZapP-EF7P2-197" value="" style="group" connectable="0" vertex="1" parent="xPx_GB9aNfZapP-EF7P2-196">
          <mxGeometry x="-430" width="1690" height="400" as="geometry" />
        </mxCell>
        <mxCell id="xPx_GB9aNfZapP-EF7P2-149" value="&lt;b&gt;&lt;font style=&quot;font-size: 20px&quot;&gt;Card title&lt;/font&gt;&lt;/b&gt;&lt;br&gt;&lt;br&gt;This is a wider card with supporting text below as a natural lead-in to additional content. This content is a little bit longer." style="html=1;shadow=0;dashed=0;shape=mxgraph.bootstrap.rrect;rSize=5;strokeColor=#DFDFDF;html=1;whiteSpace=wrap;fillColor=#ffffff;fontColor=#000000;verticalAlign=top;align=left;spacing=20;spacingBottom=0;fontSize=14;spacingTop=160;" vertex="1" parent="xPx_GB9aNfZapP-EF7P2-197">
          <mxGeometry width="510" height="390" relative="1" as="geometry">
            <mxPoint as="offset" />
          </mxGeometry>
        </mxCell>
        <mxCell id="xPx_GB9aNfZapP-EF7P2-150" value="Image cap" style="html=1;shadow=0;dashed=0;shape=mxgraph.bootstrap.topButton;rSize=5;perimeter=none;whiteSpace=wrap;fillColor=#868E96;strokeColor=#DFDFDF;fontColor=#DEE2E6;resizeWidth=1;fontSize=18;" vertex="1" parent="xPx_GB9aNfZapP-EF7P2-149">
          <mxGeometry width="509.99999999999994" height="160" relative="1" as="geometry" />
        </mxCell>
        <mxCell id="xPx_GB9aNfZapP-EF7P2-151" value="Last updated 3 mins ago" style="html=1;shadow=0;dashed=0;shape=mxgraph.bootstrap.bottomButton;rSize=5;perimeter=none;whiteSpace=wrap;fillColor=#F7F7F7;strokeColor=#DFDFDF;fontColor=#6C767D;resizeWidth=1;fontSize=13;align=left;spacing=20;" vertex="1" parent="xPx_GB9aNfZapP-EF7P2-149">
          <mxGeometry y="1" width="509.99999999999994" height="50" relative="1" as="geometry">
            <mxPoint y="-50" as="offset" />
          </mxGeometry>
        </mxCell>
        <mxCell id="xPx_GB9aNfZapP-EF7P2-152" value="&lt;b&gt;&lt;font style=&quot;font-size: 20px&quot;&gt;Card title&lt;/font&gt;&lt;/b&gt;&lt;br&gt;&lt;br&gt;This card has supporting text below as a natural lead-in to additional content." style="html=1;shadow=0;dashed=0;shape=mxgraph.bootstrap.rrect;rSize=5;strokeColor=#DFDFDF;html=1;whiteSpace=wrap;fillColor=#ffffff;fontColor=#000000;verticalAlign=top;align=left;spacing=20;spacingBottom=0;fontSize=14;spacingTop=160;" vertex="1" parent="xPx_GB9aNfZapP-EF7P2-197">
          <mxGeometry x="577.0731707317074" width="535.8536585365855" height="400" as="geometry" />
        </mxCell>
        <mxCell id="xPx_GB9aNfZapP-EF7P2-153" value="Image cap" style="html=1;shadow=0;dashed=0;shape=mxgraph.bootstrap.topButton;rSize=5;perimeter=none;whiteSpace=wrap;fillColor=#868E96;strokeColor=#DFDFDF;fontColor=#DEE2E6;resizeWidth=1;fontSize=18;" vertex="1" parent="xPx_GB9aNfZapP-EF7P2-152">
          <mxGeometry width="535.8536585365855" height="160" relative="1" as="geometry" />
        </mxCell>
        <mxCell id="xPx_GB9aNfZapP-EF7P2-154" value="Last updated 3 mins ago" style="html=1;shadow=0;dashed=0;shape=mxgraph.bootstrap.bottomButton;rSize=5;perimeter=none;whiteSpace=wrap;fillColor=#F7F7F7;strokeColor=#DFDFDF;fontColor=#6C767D;resizeWidth=1;fontSize=13;align=left;spacing=20;" vertex="1" parent="xPx_GB9aNfZapP-EF7P2-152">
          <mxGeometry y="1" width="535.8536585365855" height="50" relative="1" as="geometry">
            <mxPoint y="-50" as="offset" />
          </mxGeometry>
        </mxCell>
        <mxCell id="xPx_GB9aNfZapP-EF7P2-155" value="&lt;b&gt;&lt;font style=&quot;font-size: 20px&quot;&gt;Card title&lt;/font&gt;&lt;/b&gt;&lt;br&gt;&lt;br&gt;This is a wider card with supporting text below as a natural lead-in to additional content. This card has even longer content than the first to show that equal height action." style="html=1;shadow=0;dashed=0;shape=mxgraph.bootstrap.rrect;rSize=5;strokeColor=#DFDFDF;html=1;whiteSpace=wrap;fillColor=#ffffff;fontColor=#000000;verticalAlign=top;align=left;spacing=20;spacingBottom=0;fontSize=14;spacingTop=160;" vertex="1" parent="xPx_GB9aNfZapP-EF7P2-197">
          <mxGeometry x="1154.1463414634147" width="535.8536585365855" height="400" as="geometry" />
        </mxCell>
        <mxCell id="xPx_GB9aNfZapP-EF7P2-156" value="Image cap" style="html=1;shadow=0;dashed=0;shape=mxgraph.bootstrap.topButton;rSize=5;perimeter=none;whiteSpace=wrap;fillColor=#868E96;strokeColor=#DFDFDF;fontColor=#DEE2E6;resizeWidth=1;fontSize=18;" vertex="1" parent="xPx_GB9aNfZapP-EF7P2-155">
          <mxGeometry width="535.8536585365855" height="160" relative="1" as="geometry" />
        </mxCell>
        <mxCell id="xPx_GB9aNfZapP-EF7P2-157" value="Last updated 3 mins ago" style="html=1;shadow=0;dashed=0;shape=mxgraph.bootstrap.bottomButton;rSize=5;perimeter=none;whiteSpace=wrap;fillColor=#F7F7F7;strokeColor=#DFDFDF;fontColor=#6C767D;resizeWidth=1;fontSize=13;align=left;spacing=20;" vertex="1" parent="xPx_GB9aNfZapP-EF7P2-155">
          <mxGeometry y="1" width="535.8536585365855" height="50" relative="1" as="geometry">
            <mxPoint y="-50" as="offset" />
          </mxGeometry>
        </mxCell>
        <mxCell id="xPx_GB9aNfZapP-EF7P2-199" value="&lt;font style=&quot;font-size: 27px;&quot;&gt;&lt;font style=&quot;font-size: 27px;&quot;&gt;Top-aligned media&lt;/font&gt;&lt;br&gt;&lt;br&gt;Cras sit amet nibh libero, in gravida nulla. Nulla vel metus scelerisque ante sollicitudin. Cras purus odio, vestibulum in vulputate at, tempus viverra turpis. Fusce condimentum nunc ac nisi vulputate fringilla. Donec lacinia congue felis in faucibus.&lt;br&gt;&lt;br&gt;Donec sed odio dui. Nullam quis risus eget urna mollis ornare vel eu leo. Cum sociis natoque penatibus et magnis dis parturient montes, nascetur ridiculus mus.&lt;/font&gt;" style="strokeColor=none;fillColor=none;fontColor=#000000;perimeter=none;whiteSpace=wrap;resizeWidth=1;align=left;spacing=2;fontSize=14;verticalAlign=top;html=1;" vertex="1" parent="1">
          <mxGeometry y="630" width="1500" height="310" as="geometry" />
        </mxCell>
        <mxCell id="xPx_GB9aNfZapP-EF7P2-200" value="&lt;font color=&quot;#000000&quot; style=&quot;font-size: 93px;&quot;&gt;EKENG JOEL&lt;br style=&quot;&quot;&gt;&lt;/font&gt;&lt;font style=&quot;font-size: 55px;&quot;&gt;&lt;font color=&quot;#000000&quot;&gt;I am a&lt;/font&gt; &lt;font color=&quot;#ff3333&quot;&gt;Web Designer&lt;/font&gt;&lt;/font&gt;" style="html=1;shadow=0;dashed=0;shape=mxgraph.bootstrap.rrect;rSize=5;strokeColor=none;html=1;whiteSpace=wrap;fillColor=none;fontColor=#474E4F;align=left;spacing=15;fontSize=14;verticalAlign=top;spacingTop=40;strokeWidth=0;" vertex="1" parent="1">
          <mxGeometry x="470" y="190" width="1120" height="300" as="geometry" />
        </mxCell>
        <mxCell id="xPx_GB9aNfZapP-EF7P2-201" value="" style="shape=line;html=1;shadow=0;dashed=0;strokeColor=none;gradientColor=inherit;fontColor=inherit;fillColor=none;rSize=5;perimeter=none;whiteSpace=wrap;resizeHeight=1;fontSize=14;align=left;spacing=2;labelPosition=center;verticalLabelPosition=bottom;verticalAlign=top;spacingTop=10;strokeWidth=0;" vertex="1" parent="xPx_GB9aNfZapP-EF7P2-200">
          <mxGeometry width="40" height="10" relative="1" as="geometry">
            <mxPoint x="15" y="150" as="offset" />
          </mxGeometry>
        </mxCell>
        <mxCell id="xPx_GB9aNfZapP-EF7P2-227" value="" style="group" connectable="0" vertex="1" parent="1">
          <mxGeometry x="679" y="837" width="376" height="95" as="geometry" />
        </mxCell>
        <mxCell id="xPx_GB9aNfZapP-EF7P2-228" value="&lt;span style=&quot;font-size: 24px;&quot;&gt;SKILLS&lt;/span&gt;" style="text;strokeColor=none;align=center;fillColor=none;html=1;verticalAlign=middle;whiteSpace=wrap;rounded=0;fontStyle=1" vertex="1" parent="xPx_GB9aNfZapP-EF7P2-227">
          <mxGeometry x="-1" y="24" width="376" height="85" as="geometry" />
        </mxCell>
        <mxCell id="xPx_GB9aNfZapP-EF7P2-229" value="" style="group" connectable="0" vertex="1" parent="xPx_GB9aNfZapP-EF7P2-227">
          <mxGeometry x="108.99999999999966" y="94" width="156.00000000000034" height="1" as="geometry" />
        </mxCell>
        <mxCell id="xPx_GB9aNfZapP-EF7P2-230" value="" style="endArrow=none;html=1;rounded=0;entryX=0.22;entryY=0.307;entryDx=0;entryDy=0;entryPerimeter=0;strokeWidth=5;fillColor=#f8cecc;strokeColor=#FF3333;" edge="1" parent="xPx_GB9aNfZapP-EF7P2-229">
          <mxGeometry width="50" height="50" relative="1" as="geometry">
            <mxPoint x="155.70000000000027" as="sourcePoint" />
            <mxPoint y="0.8449999999997999" as="targetPoint" />
          </mxGeometry>
        </mxCell>
        <mxCell id="xPx_GB9aNfZapP-EF7P2-231" value="" style="endArrow=none;html=1;rounded=0;strokeWidth=6;strokeColor=#ffffff;" edge="1" parent="xPx_GB9aNfZapP-EF7P2-229">
          <mxGeometry width="50" height="50" relative="1" as="geometry">
            <mxPoint x="3.410605131648481e-13" y="1" as="sourcePoint" />
            <mxPoint x="58.00000000000034" y="1" as="targetPoint" />
          </mxGeometry>
        </mxCell>
        <mxCell id="xPx_GB9aNfZapP-EF7P2-232" value="" style="endArrow=none;html=1;rounded=0;strokeWidth=6;strokeColor=#FFFFFF;" edge="1" parent="xPx_GB9aNfZapP-EF7P2-229">
          <mxGeometry width="50" height="50" relative="1" as="geometry">
            <mxPoint x="94.00000000000034" as="sourcePoint" />
            <mxPoint x="156.00000000000034" as="targetPoint" />
          </mxGeometry>
        </mxCell>
        <mxCell id="xPx_GB9aNfZapP-EF7P2-233" value="" style="group" connectable="0" vertex="1" parent="1">
          <mxGeometry x="696" y="1146" width="376" height="95" as="geometry" />
        </mxCell>
        <mxCell id="xPx_GB9aNfZapP-EF7P2-234" value="&lt;span style=&quot;font-size: 24px;&quot;&gt;PORTFOLIO&lt;/span&gt;" style="text;strokeColor=none;align=center;fillColor=none;html=1;verticalAlign=middle;whiteSpace=wrap;rounded=0;fontStyle=1" vertex="1" parent="xPx_GB9aNfZapP-EF7P2-233">
          <mxGeometry x="-1" y="22" width="376" height="85" as="geometry" />
        </mxCell>
        <mxCell id="xPx_GB9aNfZapP-EF7P2-235" value="" style="group" connectable="0" vertex="1" parent="xPx_GB9aNfZapP-EF7P2-233">
          <mxGeometry x="108.99999999999966" y="94" width="156.00000000000034" height="1" as="geometry" />
        </mxCell>
        <mxCell id="xPx_GB9aNfZapP-EF7P2-236" value="" style="endArrow=none;html=1;rounded=0;entryX=0.22;entryY=0.307;entryDx=0;entryDy=0;entryPerimeter=0;strokeWidth=5;fillColor=#f8cecc;strokeColor=#FF3333;" edge="1" parent="xPx_GB9aNfZapP-EF7P2-235">
          <mxGeometry width="50" height="50" relative="1" as="geometry">
            <mxPoint x="155.70000000000027" as="sourcePoint" />
            <mxPoint y="0.8449999999997999" as="targetPoint" />
          </mxGeometry>
        </mxCell>
        <mxCell id="xPx_GB9aNfZapP-EF7P2-237" value="" style="endArrow=none;html=1;rounded=0;strokeWidth=6;strokeColor=#ffffff;" edge="1" parent="xPx_GB9aNfZapP-EF7P2-235">
          <mxGeometry width="50" height="50" relative="1" as="geometry">
            <mxPoint x="3.410605131648481e-13" y="1" as="sourcePoint" />
            <mxPoint x="58.00000000000034" y="1" as="targetPoint" />
          </mxGeometry>
        </mxCell>
        <mxCell id="xPx_GB9aNfZapP-EF7P2-238" value="" style="endArrow=none;html=1;rounded=0;strokeWidth=6;strokeColor=#FFFFFF;" edge="1" parent="xPx_GB9aNfZapP-EF7P2-235">
          <mxGeometry width="50" height="50" relative="1" as="geometry">
            <mxPoint x="94.00000000000034" as="sourcePoint" />
            <mxPoint x="156.00000000000034" as="targetPoint" />
          </mxGeometry>
        </mxCell>
        <mxCell id="xPx_GB9aNfZapP-EF7P2-239" value="" style="group" connectable="0" vertex="1" parent="1">
          <mxGeometry x="689" y="1656" width="376" height="95" as="geometry" />
        </mxCell>
        <mxCell id="xPx_GB9aNfZapP-EF7P2-240" value="&lt;span style=&quot;font-size: 24px;&quot;&gt;CONTACT&lt;/span&gt;" style="text;strokeColor=none;align=center;fillColor=none;html=1;verticalAlign=middle;whiteSpace=wrap;rounded=0;fontStyle=1" vertex="1" parent="xPx_GB9aNfZapP-EF7P2-239">
          <mxGeometry x="-1" y="24" width="376" height="85" as="geometry" />
        </mxCell>
        <mxCell id="xPx_GB9aNfZapP-EF7P2-241" value="" style="group" connectable="0" vertex="1" parent="xPx_GB9aNfZapP-EF7P2-239">
          <mxGeometry x="108.99999999999966" y="94" width="156.00000000000034" height="1" as="geometry" />
        </mxCell>
        <mxCell id="xPx_GB9aNfZapP-EF7P2-242" value="" style="endArrow=none;html=1;rounded=0;entryX=0.22;entryY=0.307;entryDx=0;entryDy=0;entryPerimeter=0;strokeWidth=5;fillColor=#f8cecc;strokeColor=#FF3333;" edge="1" parent="xPx_GB9aNfZapP-EF7P2-241">
          <mxGeometry width="50" height="50" relative="1" as="geometry">
            <mxPoint x="155.70000000000027" as="sourcePoint" />
            <mxPoint y="0.8449999999997999" as="targetPoint" />
          </mxGeometry>
        </mxCell>
        <mxCell id="xPx_GB9aNfZapP-EF7P2-243" value="" style="endArrow=none;html=1;rounded=0;strokeWidth=6;strokeColor=#ffffff;" edge="1" parent="xPx_GB9aNfZapP-EF7P2-241">
          <mxGeometry width="50" height="50" relative="1" as="geometry">
            <mxPoint x="3.410605131648481e-13" y="1" as="sourcePoint" />
            <mxPoint x="58.00000000000034" y="1" as="targetPoint" />
          </mxGeometry>
        </mxCell>
        <mxCell id="xPx_GB9aNfZapP-EF7P2-244" value="" style="endArrow=none;html=1;rounded=0;strokeWidth=6;strokeColor=#FFFFFF;" edge="1" parent="xPx_GB9aNfZapP-EF7P2-241">
          <mxGeometry width="50" height="50" relative="1" as="geometry">
            <mxPoint x="94.00000000000034" as="sourcePoint" />
            <mxPoint x="156.00000000000034" as="targetPoint" />
          </mxGeometry>
        </mxCell>
        <mxCell id="xPx_GB9aNfZapP-EF7P2-245" value="" style="group" connectable="0" vertex="1" parent="1">
          <mxGeometry x="628" y="436" width="270" height="29" as="geometry" />
        </mxCell>
        <mxCell id="xPx_GB9aNfZapP-EF7P2-246" value="" style="dashed=0;outlineConnect=0;html=1;align=center;labelPosition=center;verticalLabelPosition=bottom;verticalAlign=top;shape=mxgraph.webicons.twitter;fillColor=#49EAF7;gradientColor=#137BD0" vertex="1" parent="xPx_GB9aNfZapP-EF7P2-245">
          <mxGeometry x="169.7588782830379" y="7.90975" width="20.04950495049505" height="13.181818181818183" as="geometry" />
        </mxCell>
        <mxCell id="xPx_GB9aNfZapP-EF7P2-247" value="" style="dashed=0;outlineConnect=0;html=1;align=center;labelPosition=center;verticalLabelPosition=bottom;verticalAlign=top;shape=mxgraph.webicons.instagram;gradientColor=#DFDEDE;movable=1;resizable=1;rotatable=1;deletable=1;editable=1;locked=0;connectable=1;" vertex="1" parent="xPx_GB9aNfZapP-EF7P2-245">
          <mxGeometry x="53.465346534653456" y="2.6363636363636367" width="33.415841584158414" height="26.363636363636367" as="geometry" />
        </mxCell>
        <mxCell id="xPx_GB9aNfZapP-EF7P2-248" value="" style="dashed=0;outlineConnect=0;html=1;align=center;labelPosition=center;verticalLabelPosition=bottom;verticalAlign=top;shape=mxgraph.webicons.linkedin;fillColor=#FF9999;gradientColor=none;fontColor=#000000;" vertex="1" parent="xPx_GB9aNfZapP-EF7P2-245">
          <mxGeometry x="108.93564356435641" y="4.349999999999941" width="26.732673267326728" height="21.354545454545452" as="geometry" />
        </mxCell>
        <mxCell id="xPx_GB9aNfZapP-EF7P2-249" value="" style="dashed=0;outlineConnect=0;html=1;align=center;labelPosition=center;verticalLabelPosition=bottom;verticalAlign=top;shape=mxgraph.webicons.github;gradientColor=#DFDEDE" vertex="1" parent="xPx_GB9aNfZapP-EF7P2-245">
          <mxGeometry width="22.05445544554455" height="26.363636363636367" as="geometry" />
        </mxCell>
      </root>
    </mxGraphModel>
  </diagram>
</mxfile>
